<svg id="Layer_1" data-name="Layer 1" xmlns="http://www.w3.org/2000/svg" viewBox="0 0 268 92.65"><defs><style>.cls-1{fill:#60c19b;}</style></defs><path class="cls-1" d="M144.69,110.62,127.76,189.4H110.09l17.42-81.24H126c-13,0-23.07,5-23.07,24.79,0,6.26,1.6,7.24,1.72,8.34-8.47,0-13.13-3.06-13.13-11.9,0-16.32,11.53-31.9,41.84-31.9,14.85,0,19.39,2.82,31.42,2.82a39.86,39.86,0,0,0,14.23-2.58c-.24,10.68-5.52,15.59-15.34,15.59C157.7,113.32,151.32,112.09,144.69,110.62Z" transform="translate(-91.56 -97.49)"/><path class="cls-1" d="M175.86,128l-1.59,7.61c4.29-3.68,8.95-7.61,14.84-7.61,5.53,0,8.47,4.54,8.47,9.21,0,4.29-2.82,8.95-8.83,8.95-6.88,0-3.44-8.1-7.12-8.1s-5.89,1.84-9,4.67l-9.82,46.63H145.18l13-61.36Z" transform="translate(-91.56 -97.49)"/><path class="cls-1" d="M243.6,146.57a2.83,2.83,0,0,0,1.35.25c5.64,0,13.62-3.68,18.9-7.37l1.1,3.32c-4.66,5-12.76,8.71-21.72,10.18-2,22.7-14.23,36.94-29.33,36.94-11.41,0-19.63-5.4-19.63-19.39s8.34-43.56,33.62-43.56C238.44,126.94,243.6,133.69,243.6,146.57ZM233,153.32c-2.57-.61-3.31-2.7-3.31-5.15,0-3.44,1.6-5.65,3.81-6.63-.25-5.15-1.48-7.12-4.67-7.12-8.71,0-16.32,22.46-16.32,34.48,0,8.1,1.6,9.94,6.26,9.94C224.82,178.84,231.08,167.8,233,153.32Z" transform="translate(-91.56 -97.49)"/><path class="cls-1" d="M298.82,136.26c0,19.64-9.94,53.87-35,53.87-9.33,0-15.1-4.78-15.1-14.48a30,30,0,0,1,.62-5.89L258.2,128h17.67L267,169.76a23.45,23.45,0,0,0-.62,4.42c0,2.46,1.23,4,4.18,4,12,0,21.22-27.49,21.22-41-.36.85-2.94,1.22-3.92,1.22-2.95,0-4.42-3.56-4.42-6.26,0-3.8,2.45-6.62,7.61-6.62C297,125.59,298.82,130.86,298.82,136.26Z" transform="translate(-91.56 -97.49)"/><path class="cls-1" d="M359.56,128l-8.83,41.72a17,17,0,0,0-.49,3.93c0,3.44,1.59,4.54,5,4.54a6.23,6.23,0,0,0,2.7-.49c-3.32,8.59-5.65,12.39-12.27,12.39s-11.05-4.29-12-11.41c-3.68,5.65-9.57,11.41-18.28,11.41-8.35,0-16.33-5.15-16.33-19.75,0-16.57,10.19-42.95,31.54-42.95,7,0,9.94,2.7,9.94,6.26v.86l1.35-6.51Zm-42.33,40.62c0,9.45,3.92,9.57,6.13,9.57,3.56,0,8.71-3.68,10.19-10.8l5.89-27.73a4.77,4.77,0,0,0-5-4.66C324,135,317.23,157.12,317.23,168.66Z" transform="translate(-91.56 -97.49)"/></svg>